<svg width="18" height="18" viewBox="0 0 18 18" fill="none" xmlns="http://www.w3.org/2000/svg">
<path fill-rule="evenodd" clip-rule="evenodd" d="M17.4108 0.83L17.1711 0.59C16.7982 0.214412 16.2918 0.00223279 15.7629 0H14.2449C12.1287 0.000982009 10.0993 0.842541 8.60216 2.34L7.38374 3.56L7.01422 4H5.21654C4.58784 4 3.99583 4.29639 3.61861 4.8L0.123132 9.47C-0.0410441 9.65549 -0.0410441 9.93451 0.123132 10.12L1.48137 11.48C1.77885 11.777 2.18723 11.9354 2.60693 11.9164C3.02662 11.8973 3.41905 11.7027 3.68852 11.38L3.7784 11.27L6.69463 14.19L6.58477 14.28C6.26245 14.5498 6.0681 14.9428 6.04911 15.363C6.03012 15.7832 6.18824 16.1921 6.4849 16.49L7.84314 17.85C8.02839 18.0144 8.30706 18.0144 8.4923 17.85L13.1563 14.35C13.6592 13.9723 13.9552 13.3795 13.9552 12.75V11.05L14.3947 10.63L15.6131 9.41C17.1269 7.91909 17.9858 5.8861 18 3.76V2.24C17.9978 1.71042 17.7859 1.20335 17.4108 0.83ZM12.4172 5.59C12.9909 6.16106 13.164 7.02222 12.8556 7.77103C12.5471 8.51984 11.818 9.00842 11.009 9.00842C10.2001 9.00842 9.471 8.51984 9.16254 7.77103C8.85408 7.02222 9.02715 6.16106 9.60087 5.59C10.3799 4.81455 11.6382 4.81455 12.4172 5.59ZM4.37914 14.85C4.37914 14.7174 4.32437 14.5907 4.22782 14.5L3.51874 13.79C3.42812 13.6933 3.30161 13.6385 3.16919 13.6385C3.03678 13.6385 2.91026 13.6933 2.81964 13.79L0.173068 16.44C0.0785337 16.5339 0.0253597 16.6617 0.0253597 16.795C0.0253597 16.9283 0.0785337 17.0561 0.173068 17.15L0.872163 17.85C0.965925 17.9447 1.09356 17.9979 1.2267 17.9979C1.35985 17.9979 1.48748 17.9447 1.58125 17.85L4.22782 15.2C4.32437 15.1093 4.37914 14.9826 4.37914 14.85Z" fill="#45b854"/>
</svg>
