<svg width="12" height="12" viewBox="0 0 12 12" fill="none" xmlns="http://www.w3.org/2000/svg">
<path d="M11.25 5.625V6.375C11.25 6.58211 11.0821 6.75 10.875 6.75H6.75V10.875C6.75 11.0821 6.58211 11.25 6.375 11.25H5.625C5.41789 11.25 5.25 11.0821 5.25 10.875V6.75H1.125C0.917893 6.75 0.75 6.58211 0.75 6.375V5.625C0.75 5.41789 0.917893 5.25 1.125 5.25H5.25V1.125C5.25 0.917893 5.41789 0.75 5.625 0.75H6.375C6.58211 0.75 6.75 0.917893 6.75 1.125V5.25H10.875C11.0821 5.25 11.25 5.41789 11.25 5.625Z" fill="white"/>
</svg>
