<svg width="22" height="18" viewBox="0 0 22 18" fill="none" xmlns="http://www.w3.org/2000/svg">
<path fill-rule="evenodd" clip-rule="evenodd" d="M9.74337 11.438H7.73442L13.3595 1.91872C13.7612 1.32377 13.5604 0.5305 12.9577 0.233023C12.355 -0.0644533 11.5514 0.0347056 11.2501 0.629659L11.1496 0.728818L10.0447 2.61284L8.93979 0.728818C8.63845 0.0347056 7.83487 -0.163612 7.23219 0.133864C6.62951 0.431341 6.32817 1.12545 6.72995 1.81956C6.72995 1.81956 6.72995 1.91872 6.8304 1.91872L8.63845 5.09181L4.92191 11.438H1.20536C0.502235 11.438 0 12.0329 0 12.6279C0 13.322 0.602682 13.9169 1.20536 13.9169H12.2545L11.3505 12.4296C11.0492 11.8346 10.4465 11.438 9.74337 11.438ZM2.20984 15.9001L2.10939 15.9993C1.7076 16.5942 1.90849 17.3875 2.51118 17.685C3.11386 17.9825 3.91744 17.8833 4.21878 17.2883L4.31922 17.1892L5.52459 15.1069H3.51565C3.01341 15.1069 2.51118 15.4043 2.20984 15.9001ZM15.268 11.438H18.884C19.4867 11.438 20.0894 12.0329 19.989 12.727C19.989 13.322 19.4867 13.9169 18.7836 13.9169H16.6742L17.98 16.0984C18.0805 16.0984 18.0805 16.1976 18.0805 16.1976C18.3818 16.7926 18.0805 17.5858 17.4778 17.8833C16.8751 18.1808 16.0715 17.8833 15.7702 17.2883L11.6519 10.2481C11.1496 9.35564 11.1496 8.16573 11.6519 7.2733L12.2545 6.28171L15.268 11.438Z" fill="#0599CA"/>
<path d="M22 3.25V3.75C22 3.88807 21.8881 4 21.75 4H19V6.75C19 6.88807 18.8881 7 18.75 7H18.25C18.1119 7 18 6.88807 18 6.75V4H15.25C15.1119 4 15 3.88807 15 3.75V3.25C15 3.11193 15.1119 3 15.25 3H18V0.25C18 0.111929 18.1119 0 18.25 0H18.75C18.8881 0 19 0.111929 19 0.25V3H21.75C21.8881 3 22 3.11193 22 3.25Z" fill="#0599CA"/>
</svg>
