<svg width="19" height="19" viewBox="0 0 19 19" fill="none" xmlns="http://www.w3.org/2000/svg">
<path fill-rule="evenodd" clip-rule="evenodd" d="M17.5523 0.958286L17.3107 0.707452C16.9348 0.314911 16.4242 0.0931539 15.891 0.0908203H14.3607C12.2273 0.0918466 10.1815 0.971392 8.6721 2.53645L7.44377 3.81151L7.07124 4.27138H5.25895C4.62514 4.27138 4.02832 4.58114 3.64803 5.10749L0.124133 9.98829C-0.0413778 10.1821 -0.0413778 10.4738 0.124133 10.6676L1.49342 12.089C1.79332 12.3995 2.20502 12.5649 2.62812 12.5451C3.05122 12.5252 3.44685 12.3218 3.71851 11.9845L3.80912 11.8695L6.74906 14.9213L6.63831 15.0154C6.31337 15.2974 6.11744 15.7081 6.09829 16.1473C6.07915 16.5865 6.23855 17.0139 6.53762 17.3252L7.90691 18.7466C8.09366 18.9184 8.37459 18.9184 8.56135 18.7466L13.2632 15.0886C13.7703 14.6938 14.0687 14.0743 14.0687 13.4163V11.6396L14.5117 11.2006L15.74 9.92558C17.2662 8.36737 18.132 6.24261 18.1463 4.02054V2.43193C18.1441 1.87845 17.9305 1.34849 17.5523 0.958286ZM12.5183 5.93303C13.0967 6.52986 13.2712 7.4299 12.9602 8.21251C12.6492 8.99512 11.9142 9.50574 11.0987 9.50574C10.2832 9.50574 9.54815 8.99512 9.23718 8.21251C8.92621 7.4299 9.10069 6.52986 9.67907 5.93303C10.4645 5.12258 11.7329 5.12258 12.5183 5.93303ZM4.41281 15.6111C4.41281 15.4725 4.35759 15.3401 4.26026 15.2453L3.54541 14.5032C3.45406 14.4022 3.32651 14.3449 3.19302 14.3449C3.05953 14.3449 2.93198 14.4022 2.84063 14.5032L0.172537 17.2728C0.0772344 17.371 0.0236281 17.5045 0.0236281 17.6439C0.0236281 17.7832 0.0772344 17.9168 0.172537 18.0149L0.877316 18.7465C0.97184 18.8454 1.10051 18.9011 1.23474 18.9011C1.36897 18.9011 1.49764 18.8454 1.59216 18.7465L4.26026 15.9769C4.35759 15.882 4.41281 15.7496 4.41281 15.6111Z" fill="#45B854"/>
</svg>