<svg width="11" height="12" viewBox="0 0 11 12" fill="none" xmlns="http://www.w3.org/2000/svg">
<path d="M6.29706 10.9418C4.85299 12.3527 2.51739 12.3527 1.07332 10.9418C-0.357775 9.5366 -0.357775 7.26015 1.07332 5.85494L6.26648 0.792051C7.35161 -0.264017 9.1022 -0.264017 10.1873 0.792051C10.7073 1.29582 11 1.9828 11 2.69963C11 3.41646 10.7073 4.10344 10.1873 4.60721L5.42236 9.25019C5.07757 9.59273 4.60722 9.78554 4.11643 9.78554C3.62563 9.78554 3.15528 9.59273 2.81049 9.25019C2.46498 8.91252 2.27077 8.45384 2.27077 7.97547C2.27077 7.4971 2.46498 7.03842 2.81049 6.70075L5.83218 3.7614C5.88961 3.70462 5.96778 3.67268 6.04933 3.67268C6.13088 3.67268 6.20905 3.70462 6.26648 3.7614L6.59678 4.07933C6.65468 4.13565 6.68725 4.21231 6.68725 4.29228C6.68725 4.37225 6.65468 4.44892 6.59678 4.50523L3.57509 7.44459C3.31947 7.74553 3.34062 8.18813 3.62383 8.4643C3.90703 8.74048 4.35845 8.75873 4.66388 8.50635L9.42885 3.86937C9.74599 3.56077 9.92436 3.14077 9.92436 2.70263C9.92436 2.26449 9.74599 1.84449 9.42885 1.53589C8.76559 0.889227 7.69433 0.889227 7.03107 1.53589L1.82569 6.59877C0.814706 7.59367 0.814706 9.20308 1.82569 10.198C2.85334 11.1865 4.4987 11.1865 5.52634 10.198L8.98233 6.83272C9.10407 6.71375 9.301 6.71375 9.42274 6.83272L9.74693 7.15065C9.80606 7.20508 9.83961 7.28107 9.83961 7.36061C9.83961 7.44014 9.80606 7.51613 9.74693 7.57056L6.29706 10.9418Z" fill="#0599CA"/>
</svg>
