<svg width="7" height="10" viewBox="0 0 7 10" fill="none" xmlns="http://www.w3.org/2000/svg">
<path fill-rule="evenodd" clip-rule="evenodd" d="M7 1.75V1.25C7 1.11193 6.90206 1 6.78125 1H4.8125V0.5C4.8125 0.223858 4.61662 0 4.375 0H2.625C2.38338 0 2.1875 0.223858 2.1875 0.5V1H0.21875C0.0979377 1 0 1.11193 0 1.25V1.75C0 1.88807 0.0979377 2 0.21875 2H6.78125C6.90206 2 7 1.88807 7 1.75ZM1.69313 10C1.23282 10.0013 0.850345 9.59478 0.818125 9.07L0.4375 3H6.5625L6.19062 9.07C6.1584 9.59478 5.77593 10.0013 5.31562 10H1.69313Z" fill="#E81E25"/>
</svg>
