<svg width="19" height="24" viewBox="0 0 19 24" fill="none" xmlns="http://www.w3.org/2000/svg">
<path fill-rule="evenodd" clip-rule="evenodd" d="M17.67 15.295L18.6556 16.2806C18.875 16.5018 18.9987 16.8003 19 17.1119V17.8125C19 18.4683 18.4683 19 17.8125 19H1.1875C0.531662 19 0 18.4683 0 17.8125V17.1119C0.00131174 16.8003 0.124991 16.5018 0.344375 16.2806L1.33 15.295C1.99829 14.6275 2.37417 13.722 2.375 12.7775V9.5C2.375 7.95836 2.87502 6.45831 3.8 5.225L4.86875 3.8C5.54154 2.90294 6.59743 2.375 7.71875 2.375H8.3125V0.59375C8.3125 0.265831 8.57833 0 8.90625 0H10.0938C10.4217 0 10.6875 0.265831 10.6875 0.59375V2.375H11.2812C12.4026 2.375 13.4585 2.90294 14.1312 3.8L15.2 5.225C16.125 6.45831 16.625 7.95836 16.625 9.5V12.7775C16.6258 13.722 17.0017 14.6275 17.67 15.295ZM9.5 23.75C10.8117 23.75 11.875 22.6867 11.875 21.375H7.125C7.125 22.6867 8.18832 23.75 9.5 23.75Z" fill="#DFE3E9"/>
</svg>
