<svg width="25" height="28" viewBox="0 0 25 28" fill="none" xmlns="http://www.w3.org/2000/svg">
<path opacity="0.5" d="M24.6918 23.6178C24.889 23.8302 25 24.1194 25 24.4211C25 24.7227 24.889 25.0119 24.6918 25.2243L23.2329 26.8082C23.0373 27.0224 22.7709 27.1429 22.4931 27.1429C22.2152 27.1429 21.9489 27.0224 21.7532 26.8082L12.5 16.7618L3.24676 26.8082C3.0511 27.0224 2.78476 27.1429 2.50692 27.1429C2.22907 27.1429 1.96273 27.0224 1.76708 26.8082L0.308231 25.2243C0.110961 25.0119 0 24.7227 0 24.4211C0 24.1194 0.110961 23.8302 0.308231 23.6178L9.56147 13.5714L0.308231 3.52505C0.110961 3.31262 0 3.02346 0 2.7218C0 2.42014 0.110961 2.13097 0.308231 1.91854L1.76708 0.334651C1.96273 0.120472 2.22907 0 2.50692 0C2.78476 0 3.0511 0.120472 3.24676 0.334651L12.5 10.381L21.7532 0.334651C21.9489 0.120472 22.2152 0 22.4931 0C22.7709 0 23.0373 0.120472 23.2329 0.334651L24.6918 1.91854C24.889 2.13097 25 2.42014 25 2.7218C25 3.02346 24.889 3.31262 24.6918 3.52505L15.4385 13.5714L24.6918 23.6178Z" fill="#00101A"/>
</svg>
