<svg width="33" height="27" viewBox="0 0 33 27" fill="none" xmlns="http://www.w3.org/2000/svg">
<path d="M32.7128 3.42954L12.1313 26.6757C11.949 26.8832 11.7008 27 11.442 27C11.1831 27 10.935 26.8832 10.7527 26.6757L0.287169 14.8552C0.103379 14.6493 0 14.3691 0 14.0767C0 13.7843 0.103379 13.5041 0.287169 13.2982L1.64633 11.7631C1.82862 11.5555 2.07676 11.4387 2.33562 11.4387C2.59448 11.4387 2.84262 11.5555 3.0249 11.7631L11.4323 21.2589L29.9751 0.31544C30.3592 -0.105147 30.9696 -0.105147 31.3537 0.31544L32.7128 1.87249C32.8966 2.07838 33 2.35864 33 2.65102C33 2.94339 32.8966 3.22365 32.7128 3.42954Z" fill="#45B854"/>
</svg>
