<svg width="35" height="38" viewBox="0 0 35 38" fill="none" xmlns="http://www.w3.org/2000/svg">
<path opacity="0.5" d="M34.3846 33.2343L34.3853 33.235C34.6166 33.4842 34.75 33.8274 34.75 34.1895C34.75 34.5515 34.6166 34.8948 34.3853 35.1439L34.3846 35.1447L32.3422 37.3621L32.3415 37.3629C32.1126 37.6135 31.8056 37.75 31.4903 37.75C31.175 37.75 30.868 37.6135 30.6391 37.3629L30.6384 37.3621L17.6839 23.2972L17.5 23.0975L17.3161 23.2972L4.36158 37.3621L4.36089 37.3629C4.13197 37.6135 3.82502 37.75 3.50969 37.75C3.19435 37.75 2.8874 37.6135 2.65848 37.3629L2.65779 37.3621L0.615411 35.1447L0.614716 35.1439C0.383365 34.8948 0.25 34.5515 0.25 34.1895C0.25 33.8274 0.383364 33.4842 0.614718 33.235L0.61541 33.2343L13.5699 19.1694L13.7259 19L13.5699 18.8306L0.615412 4.76571L0.614716 4.76496C0.383364 4.51583 0.25 4.17256 0.25 3.81052C0.25 3.44847 0.383364 3.1052 0.614716 2.85607L0.614718 2.85607L0.61541 2.85532L2.65779 0.63788L2.65779 0.637882L2.65848 0.637128C2.8874 0.38654 3.19435 0.25 3.50969 0.25C3.82502 0.25 4.13197 0.38654 4.36089 0.637129L4.36158 0.63788L17.3161 14.7028L17.5 14.9025L17.6839 14.7028L30.6384 0.637882L30.6391 0.637128C30.868 0.38654 31.175 0.25 31.4903 0.25C31.8056 0.25 32.1126 0.38654 32.3415 0.637129L32.3422 0.63788L34.3846 2.85532L34.3853 2.85607C34.6166 3.1052 34.75 3.44847 34.75 3.81052C34.75 4.17256 34.6166 4.51583 34.3853 4.76495L34.3846 4.76571L21.4301 18.8306L21.2741 19L21.4301 19.1694L34.3846 33.2343Z" fill="#354052" stroke="white" stroke-width="0.5"/>
</svg>
