<svg width="17" height="21" viewBox="0 0 17 21" fill="none" xmlns="http://www.w3.org/2000/svg">
<path fill-rule="evenodd" clip-rule="evenodd" d="M11.8394 2.09028H16.376C16.6544 2.09028 16.8801 2.32424 16.8801 2.61285V3.65799C16.8801 3.94659 16.6544 4.18056 16.376 4.18056H1.25407C0.975678 4.18056 0.75 3.94659 0.75 3.65799V2.61285C0.75 2.32424 0.975678 2.09028 1.25407 2.09028H5.79065V1.04514C5.79065 0.467925 6.24201 0 6.79878 0H10.8313C11.3881 0 11.8394 0.467925 11.8394 1.04514V2.09028ZM1.75813 6.27083L2.6352 18.9588C2.70945 20.0557 3.59078 20.9055 4.65146 20.9028H12.9988C14.0595 20.9055 14.9408 20.0557 15.015 18.9588L15.872 6.27083H1.75813ZM11.9295 15.5308C12.027 15.6257 12.0822 15.7581 12.0822 15.8966C12.0822 16.0352 12.027 16.1676 11.9295 16.2624L11.3952 16.8164C11.3037 16.9174 11.176 16.9747 11.0423 16.9747C10.9087 16.9747 10.781 16.9174 10.6895 16.8164L8.81437 14.8828L6.93924 16.8164C6.84777 16.9174 6.72006 16.9747 6.5864 16.9747C6.45273 16.9747 6.32502 16.9174 6.23355 16.8164L5.69924 16.2624C5.60178 16.1676 5.54649 16.0352 5.54649 15.8966C5.54649 15.7581 5.60178 15.6257 5.69924 15.5308L7.56428 13.5869L5.69924 11.6429C5.60178 11.5481 5.54649 11.4157 5.54649 11.2771C5.54649 11.1385 5.60178 11.0061 5.69924 10.9113L6.23355 10.3574C6.32502 10.2564 6.45273 10.199 6.5864 10.199C6.72006 10.199 6.84777 10.2564 6.93924 10.3574L8.81437 12.2909L10.6895 10.3574C10.781 10.2564 10.9087 10.199 11.0423 10.199C11.176 10.199 11.3037 10.2564 11.3952 10.3574L11.9295 10.9113C12.027 11.0061 12.0822 11.1385 12.0822 11.2771C12.0822 11.4157 12.027 11.5481 11.9295 11.6429L10.0644 13.5869L11.9295 15.5308Z" fill="#E81E25"/>
</svg>
