<svg width="7" height="4" viewBox="0 0 7 4" fill="none" xmlns="http://www.w3.org/2000/svg">
<path d="M0.120723 0.847775C0.0434595 0.772692 0 0.670486 0 0.563864C0 0.457243 0.0434595 0.355036 0.120723 0.279953L0.283973 0.120004C0.360762 0.0419014 0.467151 -0.00153116 0.577823 4.12592e-05H6.42218C6.53285 -0.00153116 6.63924 0.0419014 6.71603 0.120004L6.87928 0.279953C6.95654 0.355036 7 0.457243 7 0.563864C7 0.670486 6.95654 0.772692 6.87928 0.847775L3.78569 3.87882C3.71163 3.95614 3.60822 4 3.5 4C3.39178 4 3.28837 3.95614 3.21431 3.87882L0.120723 0.847775Z" fill="#354052"/>
</svg>
