<svg width="9" height="9" viewBox="0 0 9 9" fill="none" xmlns="http://www.w3.org/2000/svg">
<path fill-rule="evenodd" clip-rule="evenodd" d="M8.45119 0.219615L8.78043 0.54895C8.9208 0.689185 8.99976 0.879438 8.99993 1.07788V1.45712C9.00243 1.65902 8.92327 1.85336 8.78043 1.99603L7.85755 2.9042C7.81072 2.95143 7.74696 2.978 7.68046 2.978C7.61395 2.978 7.5502 2.95143 7.50336 2.9042L6.10157 1.48207C6.00651 1.38505 6.00651 1.22979 6.10157 1.13277L7.0045 0.219615C7.14714 0.0767356 7.34143 -0.00244165 7.54327 5.74128e-05H7.9224C8.12079 0.000232112 8.31099 0.0792053 8.45119 0.219615ZM6.90973 3.84231C7.0048 3.74529 7.0048 3.59003 6.90973 3.49301L5.483 2.08585C5.43617 2.03862 5.37242 2.01205 5.30591 2.01205C5.2394 2.01205 5.17565 2.03862 5.12881 2.08585L1.10304 6.11273C1.00571 6.20922 0.929296 6.32472 0.878556 6.45205L0.0205227 8.61768C-0.0280828 8.73009 0.0120772 8.86118 0.115305 8.92705C0.186006 8.99766 0.292008 9.01926 0.384688 8.98194L2.54973 8.10371C2.67702 8.05296 2.79249 7.97652 2.88895 7.87917L6.90973 3.84231Z" fill="#7F8FA4"/>
</svg>
