<svg width="18" height="18" viewBox="0 0 18 18" fill="none" xmlns="http://www.w3.org/2000/svg">
<path fill-rule="evenodd" clip-rule="evenodd" d="M16.9024 0.439229L17.5609 1.0979C17.8416 1.37837 17.9995 1.75888 17.9999 2.15577V2.91424C18.0049 3.31803 17.8466 3.70672 17.5609 3.99206L15.7151 5.8084C15.6215 5.90287 15.4939 5.956 15.3609 5.956C15.2279 5.956 15.1004 5.90287 15.0067 5.8084L12.2032 2.96414C12.013 2.77011 12.013 2.45958 12.2032 2.26555L14.009 0.439229C14.2943 0.153471 14.6829 -0.00488331 15.0866 0.000114826H15.8448C16.2416 0.000464225 16.622 0.158411 16.9024 0.439229ZM13.8195 7.68462C14.0096 7.49059 14.0096 7.18006 13.8195 6.98603L10.966 4.1717C10.8723 4.07724 10.7448 4.0241 10.6118 4.0241C10.4788 4.0241 10.3513 4.07724 10.2576 4.1717L2.20608 12.2255C2.01142 12.4184 1.85859 12.6494 1.75711 12.9041L0.0410455 17.2354C-0.0561655 17.4602 0.0241544 17.7224 0.230611 17.8541C0.372012 17.9953 0.584015 18.0385 0.769376 17.9639L5.09945 16.2074C5.35403 16.1059 5.58498 15.953 5.7779 15.7583L13.8195 7.68462Z" fill="#0599CA"/>
</svg>
