<svg width="19" height="19" viewBox="0 0 19 19" fill="none" xmlns="http://www.w3.org/2000/svg">
<path fill-rule="evenodd" clip-rule="evenodd" d="M17.4168 0.594798L18.0806 1.2832C18.3636 1.57633 18.5228 1.97401 18.5232 2.38882V3.18153C18.5282 3.60355 18.3686 4.00978 18.0806 4.308L16.2198 6.20633C16.1254 6.30506 15.9969 6.36059 15.8628 6.36059C15.7287 6.36059 15.6001 6.30506 15.5057 6.20633L12.6793 3.23368C12.4876 3.03089 12.4876 2.70634 12.6793 2.50355L14.4999 0.594798C14.7875 0.296141 15.1792 0.130638 15.5862 0.135862H16.3506C16.7506 0.136227 17.1341 0.301303 17.4168 0.594798ZM14.3068 8.16731C14.4985 7.96452 14.4985 7.63997 14.3068 7.43718L11.4302 4.49582C11.3357 4.39709 11.2072 4.34156 11.0731 4.34156C10.939 4.34156 10.8105 4.39709 10.716 4.49582L2.59902 12.9131C2.40278 13.1148 2.2487 13.3562 2.1464 13.6224L0.416379 18.1492C0.318378 18.3841 0.399351 18.6581 0.607486 18.7958C0.750037 18.9434 0.963763 18.9886 1.15063 18.9106L5.51591 17.0748C5.77256 16.9687 6.00539 16.809 6.19987 16.6055L14.3068 8.16731Z" fill="#0599CA"/>
</svg>
