<svg width="31" height="32" viewBox="0 0 31 32" fill="none" xmlns="http://www.w3.org/2000/svg">
<path d="M17.0814 5.39012L18.2771 4.1944C20.6252 1.84632 24.4479 1.7882 26.8095 4.12275C27.7043 5.00933 28.2991 6.15394 28.51 7.39581C28.7209 8.6377 28.5375 9.91446 27.9856 11.0468C27.7208 11.5877 27.6316 12.1977 27.7303 12.7918C27.8292 13.3858 28.111 13.9342 28.5366 14.3602C29.3192 13.5759 29.9394 12.645 30.3621 11.6208C30.7847 10.5966 31.0015 9.49918 31 8.39121C30.9983 7.28325 30.7786 6.18644 30.353 5.16346C29.9274 4.14047 29.3044 3.21135 28.5197 2.42919C25.2174 -0.854458 19.8572 -0.789114 16.5642 2.50376L5.16697 13.9007L4.23001 12.9637C1.84211 10.5758 1.82689 6.67255 4.25692 4.32709C5.1564 3.46158 6.30237 2.89658 7.53665 2.71008C8.77093 2.52358 10.0326 2.72478 11.1477 3.28589C11.6567 3.5467 12.235 3.63999 12.8001 3.55246C13.3653 3.46493 13.8883 3.20105 14.2945 2.7985L14.3236 2.76959C14.3326 2.76062 14.3398 2.74993 14.3447 2.73815C14.3496 2.72639 14.3521 2.71377 14.3521 2.70102C14.3521 2.68828 14.3496 2.67565 14.3447 2.66389C14.3398 2.65213 14.3326 2.64144 14.3236 2.63245C12.7549 1.10319 10.6528 0.244207 8.46207 0.237262C6.27134 0.230318 4.16382 1.07596 2.58549 2.59524C-0.814398 5.87736 -0.802249 11.3352 2.53937 14.6768L13.9332 26.0707L12.7229 27.281C10.3748 29.6291 6.55195 29.6872 4.1905 27.3526C3.29565 26.4661 2.70099 25.3214 2.49003 24.0796C2.27908 22.8377 2.46241 21.561 3.0143 20.4286C3.27908 19.8877 3.36831 19.2776 3.26956 18.6837C3.17079 18.0896 2.88895 17.5412 2.46341 17.1151C1.68087 17.8996 1.06054 18.8304 0.637862 19.8545C0.215182 20.8788 -0.00156211 21.9761 8.47486e-06 23.0842C0.00157907 24.1921 0.221433 25.289 0.647017 26.3119C1.0726 27.3349 1.69557 28.2641 2.48033 29.0462C5.78243 32.33 11.1428 32.2648 14.4358 28.9718L25.8478 17.5596L26.7883 18.5001C29.1364 20.8482 29.1945 24.6709 26.8599 27.0324C25.9734 27.9273 24.8287 28.5219 23.5869 28.733C22.3451 28.9439 21.0683 28.7605 19.9359 28.2086C19.3949 27.9436 18.7845 27.8543 18.1903 27.9533C17.596 28.0522 17.0474 28.3343 16.6214 28.7602C17.4058 29.5428 18.3366 30.1632 19.3608 30.5858C20.385 31.0085 21.4824 31.2253 22.5904 31.2238C23.6984 31.2221 24.7952 31.0022 25.8181 30.5766C26.8412 30.151 27.7703 29.528 28.5524 28.7433C31.8362 25.4412 31.7709 20.0808 28.478 16.788L17.0814 5.39012ZM15.6346 24.3685L6.86883 15.6027L15.3794 7.09229L24.1452 15.8581L15.6346 24.3685Z" fill="#18CDCA"/>
</svg>
