<svg width="6" height="4" viewBox="0 0 6 4" fill="none" xmlns="http://www.w3.org/2000/svg">
<path d="M3.3609 0.110009C3.29064 0.0396626 3.19533 9.60827e-05 3.0959 8.58307e-06H2.9059C2.8067 0.00116062 2.71176 0.0405667 2.6409 0.110009L0.0759027 2.68001C0.0285745 2.72695 0.00195312 2.79085 0.00195312 2.85751C0.00195312 2.92417 0.0285745 2.98807 0.0759027 3.03501L0.430903 3.39001C0.476985 3.43704 0.540058 3.46354 0.605903 3.46354C0.671748 3.46354 0.734821 3.43704 0.780903 3.39001L3.0009 1.16501L5.2209 3.39001C5.26784 3.43734 5.33174 3.46396 5.3984 3.46396C5.46506 3.46396 5.52896 3.43734 5.5759 3.39001L5.9259 3.03501C5.97323 2.98807 5.99985 2.92417 5.99985 2.85751C5.99985 2.79085 5.97323 2.72695 5.9259 2.68001L3.3609 0.110009Z" fill="#B7C0CD"/>
</svg>
