<svg width="6" height="4" viewBox="0 0 6 4" fill="none" xmlns="http://www.w3.org/2000/svg">
<path d="M3.3609 3.88999C3.29064 3.96034 3.19533 3.9999 3.0959 3.99999H2.9059C2.8067 3.99884 2.71176 3.95943 2.6409 3.88999L0.0759027 1.31999C0.0285745 1.27305 0.00195312 1.20915 0.00195312 1.14249C0.00195312 1.07583 0.0285745 1.01193 0.0759027 0.964991L0.430903 0.609991C0.476985 0.562959 0.540058 0.536455 0.605903 0.536455C0.671748 0.536455 0.734821 0.562959 0.780903 0.609991L3.0009 2.83499L5.2209 0.609991C5.26784 0.562663 5.33174 0.536041 5.3984 0.536041C5.46506 0.536041 5.52896 0.562663 5.5759 0.609991L5.9259 0.964991C5.97323 1.01193 5.99985 1.07583 5.99985 1.14249C5.99985 1.20915 5.97323 1.27305 5.9259 1.31999L3.3609 3.88999Z" fill="#B7C0CD"/>
</svg>
