<svg width="3" height="6" viewBox="0 0 3 6" fill="none" xmlns="http://www.w3.org/2000/svg">
<path d="M0.095267 3.14116C0.0343427 3.07546 7.58031e-05 2.98632 0 2.89334V2.71566C0.000997707 2.62289 0.0351258 2.53411 0.095267 2.46785L2.32105 0.0691549C2.3617 0.0248953 2.41705 0 2.47478 0C2.53251 0 2.58785 0.0248953 2.6285 0.0691549L2.93596 0.401137C2.97669 0.444231 2.99964 0.503215 2.99964 0.564791C2.99964 0.626366 2.97669 0.68535 2.93596 0.728444L1.00896 2.8045L2.93596 4.88056C2.97694 4.92446 3 4.98422 3 5.04656C3 5.10889 2.97694 5.16865 2.93596 5.21255L2.6285 5.53985C2.58785 5.58411 2.53251 5.60901 2.47478 5.60901C2.41705 5.60901 2.3617 5.58411 2.32105 5.53985L0.095267 3.14116Z" fill="#7F8FA4"/>
</svg>
