<svg width="4" height="7" viewBox="0 0 4 7" fill="none" xmlns="http://www.w3.org/2000/svg">
<path d="M3.23241 3.17001C3.2969 3.23442 3.33317 3.32179 3.33325 3.41293V3.5871C3.33219 3.67804 3.29607 3.76506 3.23241 3.83001L0.87658 6.18126C0.83355 6.22465 0.774976 6.24905 0.713871 6.24905C0.652767 6.24905 0.594193 6.22465 0.551163 6.18126L0.225746 5.85585C0.182633 5.81361 0.158338 5.75579 0.158338 5.69543C0.158338 5.63507 0.182633 5.57726 0.225746 5.53501L2.26533 3.50001L0.225746 1.46501C0.182362 1.42198 0.157959 1.36341 0.157959 1.30231C0.157959 1.2412 0.182362 1.18263 0.225746 1.1396L0.551163 0.818764C0.594193 0.77538 0.652767 0.750977 0.713871 0.750977C0.774976 0.750977 0.83355 0.77538 0.87658 0.818764L3.23241 3.17001Z" fill="#7F8FA4"/>
</svg>
