<svg width="10" height="11" viewBox="0 0 10 11" fill="none" xmlns="http://www.w3.org/2000/svg">
<path opacity="0.5" d="M0.434 2.846C0.434 4.148 1.344 5.128 2.674 5.128C4.018 5.128 4.942 4.148 4.942 2.846C4.942 1.53 4.018 0.521999 2.674 0.521999C1.344 0.521999 0.434 1.53 0.434 2.846ZM1.792 10H2.548L8.526 0.661999H7.756L1.792 10ZM4.102 2.846C4.102 3.728 3.514 4.428 2.674 4.428C1.848 4.428 1.274 3.728 1.274 2.846C1.274 1.922 1.848 1.236 2.674 1.236C3.514 1.236 4.102 1.922 4.102 2.846ZM5.306 7.886C5.306 9.188 6.216 10.168 7.546 10.168C8.876 10.168 9.8 9.188 9.8 7.886C9.8 6.57 8.876 5.562 7.546 5.562C6.216 5.562 5.306 6.57 5.306 7.886ZM8.974 7.886C8.974 8.768 8.386 9.468 7.546 9.468C6.706 9.468 6.132 8.768 6.132 7.886C6.132 6.962 6.706 6.276 7.546 6.276C8.386 6.276 8.974 6.962 8.974 7.886Z" fill="#354052"/>
</svg>
