<svg width="16" height="16" viewBox="0 0 16 16" fill="none" xmlns="http://www.w3.org/2000/svg">
<path fill-rule="evenodd" clip-rule="evenodd" d="M12.0015 4C12.0015 6.20914 10.21 8 8 8C5.79002 8 3.99849 6.20914 3.99849 4C3.99849 1.79086 5.79002 0 8 0C10.21 0 12.0015 1.79086 12.0015 4ZM10.0008 4C10.0008 2.89543 9.10499 2 8 2C6.89501 2 5.99924 2.89543 5.99924 4C5.99924 5.10457 6.89501 6 8 6C9.10499 6 10.0008 5.10457 10.0008 4ZM15.893 14.55L14.0023 10.66C13.4854 9.6245 12.4187 8.97854 11.2612 9H4.73877C3.59923 8.99776 2.55674 9.64084 2.04775 10.66L0.107015 14.55C-0.0490131 14.8595 -0.0335833 15.2277 0.147794 15.5231C0.329171 15.8185 0.650627 15.999 0.997352 16H15.0026C15.3494 15.999 15.6708 15.8185 15.8522 15.5231C16.0336 15.2277 16.049 14.8595 15.893 14.55ZM3.83843 11.55L2.61796 14H13.382L12.1616 11.55C11.9904 11.2105 11.6415 10.9974 11.2612 11H4.73877C4.35847 10.9974 4.00956 11.2105 3.83843 11.55Z" fill="#979797"/>
</svg>
