<svg width="17" height="16" viewBox="0 0 17 16" fill="none" xmlns="http://www.w3.org/2000/svg">
<path fill-rule="evenodd" clip-rule="evenodd" d="M12.3333 11.0715L15.8889 14.6313C16.0477 14.8079 16.0398 15.0783 15.8711 15.2454L15.2489 15.8684C15.1654 15.9526 15.0518 16 14.9333 16C14.8148 16 14.7012 15.9526 14.6178 15.8684L11.0622 12.3085C10.9639 12.21 10.8746 12.1028 10.7956 11.9881L10.1289 11.0982C9.02582 11.9801 7.65604 12.4602 6.24444 12.4598C3.33565 12.4699 0.808019 10.461 0.15798 7.62231C-0.492058 4.78365 0.908981 1.87288 3.53164 0.613257C6.1543 -0.646363 9.29864 0.0813446 11.1031 2.36555C12.9076 4.64977 12.8906 7.88086 11.0622 10.1459L11.9511 10.76C12.0899 10.849 12.2182 10.9535 12.3333 11.0715ZM1.8 6.23011C1.8 8.68766 3.78985 10.6799 6.24445 10.6799C7.42319 10.6799 8.55365 10.2111 9.38715 9.37659C10.2206 8.54209 10.6889 7.41027 10.6889 6.23011C10.6889 3.77255 8.69905 1.7803 6.24445 1.7803C3.78985 1.7803 1.8 3.77255 1.8 6.23011Z" fill="currentColor"/>
</svg>
