<?xml version="1.0" encoding="UTF-8" standalone="no"?>
<!DOCTYPE svg PUBLIC "-//W3C//DTD SVG 1.1//EN" "http://www.w3.org/Graphics/SVG/1.1/DTD/svg11.dtd">
<svg width="160px" height="27px" version="1.1" xmlns="http://www.w3.org/2000/svg" xmlns:xlink="http://www.w3.org/1999/xlink" xml:space="preserve" xmlns:serif="http://www.serif.com/" style="fill-rule:evenodd;clip-rule:evenodd;stroke-linejoin:round;stroke-miterlimit:2;">
    <path d="M15.331,21.086L19.723,0.071L24.248,0.071L22.511,8.309L22.575,8.309C23.779,6.927 25.526,6.134 27.36,6.136C29.724,6.136 31.067,7.536 31.067,9.862C31.044,10.764 30.934,11.662 30.738,12.543L28.969,21.086L24.444,21.086L26.149,12.847C26.28,12.25 26.345,11.64 26.346,11.028C26.346,10.135 25.953,9.507 24.939,9.507C23.494,9.507 21.954,11.174 21.364,13.887L19.856,21.086L15.331,21.086Z" style="fill:gray;fill-rule:nonzero;"/>
    <path d="M39.699,26.929L42.868,11.878C43.229,10.179 43.59,7.91 43.787,6.421L47.786,6.421L47.532,8.626L47.596,8.626C48.73,7.121 50.496,6.218 52.381,6.18C55.695,6.18 57.039,8.652 57.039,11.428C57.039,16.434 53.566,21.384 48.248,21.384C47.334,21.412 46.424,21.228 45.593,20.845L45.492,20.845L44.224,26.929L39.699,26.929ZM46.157,17.689C46.695,18.093 47.354,18.303 48.027,18.285C50.562,18.285 52.286,14.482 52.286,11.846C52.286,10.743 51.861,9.583 50.479,9.583C48.908,9.583 47.431,11.282 46.905,13.849L46.157,17.689Z" style="fill:gray;fill-rule:nonzero;"/>
    <path d="M81.179,2.606L80.355,6.51L83.657,6.51L83.023,9.577L79.708,9.577L78.53,15.034C78.397,15.58 78.32,16.139 78.302,16.701C78.302,17.474 78.694,17.924 79.645,17.924C80.049,17.933 80.454,17.914 80.856,17.867L80.33,21.035C79.451,21.254 78.547,21.354 77.642,21.333C74.955,21.333 73.643,20.066 73.643,18.165C73.658,17.31 73.768,16.459 73.973,15.629L75.24,9.577L73.238,9.577L73.872,6.503L75.874,6.503L76.432,3.822L81.179,2.606Z" style="fill:gray;fill-rule:nonzero;"/>
    <path d="M92.644,21.086C92.675,20.25 92.777,19.324 92.84,18.342L92.745,18.342C91.332,20.611 89.43,21.384 87.764,21.384C85.045,21.384 83.327,19.419 83.327,16.523C83.327,11.009 85.932,6.383 94.101,6.383C95.774,6.395 97.438,6.625 99.051,7.067L97.397,14.647C96.98,16.768 96.768,18.924 96.763,21.086L92.644,21.086ZM94.006,9.64C93.63,9.555 93.245,9.514 92.859,9.52C89.487,9.52 87.954,12.752 87.954,15.686C87.954,17.087 88.448,18.044 89.659,18.044C91.002,18.044 92.542,16.523 93.233,13.215L94.006,9.64Z" style="fill:gray;fill-rule:nonzero;"/>
    <path d="M108.57,2.606L107.74,6.51L111.054,6.51L110.421,9.583L107.106,9.583L105.927,15.04C105.795,15.587 105.719,16.145 105.699,16.707C105.699,17.48 106.092,17.93 107.043,17.93C107.447,17.94 107.852,17.921 108.253,17.873L107.727,21.042C106.849,21.261 105.945,21.361 105.04,21.34C102.353,21.34 101.041,20.072 101.041,18.171C101.055,17.316 101.166,16.466 101.371,15.636L102.638,9.583L100.642,9.583L101.275,6.51L103.303,6.51L103.861,3.829L108.57,2.606Z" style="fill:gray;fill-rule:nonzero;"/>
    <path d="M137.425,21.086L139.491,11.25C139.884,9.463 140.125,7.853 140.347,6.51L144.314,6.51L144.055,8.747L144.118,8.747C145.361,7.131 147.295,6.191 149.334,6.212C151.869,6.212 153.168,7.669 153.168,9.97C153.143,10.822 153.043,11.67 152.87,12.505L151.07,21.092L146.545,21.092L148.301,12.708C148.405,12.177 148.461,11.639 148.465,11.098C148.465,10.173 148.104,9.52 147.052,9.52C145.677,9.52 144.035,11.13 143.414,14.229L141.963,21.086L137.425,21.086Z" style="fill:gray;fill-rule:nonzero;"/>
    <path d="M37.874,4.634L37.937,4.634C38.003,4.639 38.069,4.642 38.134,4.642C39.443,4.642 40.528,3.584 40.561,2.276C40.561,2.273 40.561,2.27 40.561,2.267C40.561,1.151 39.643,0.232 38.527,0.232C38.461,0.232 38.395,0.235 38.33,0.242C38.3,0.241 38.27,0.24 38.24,0.24C36.931,0.24 35.842,1.291 35.795,2.599C35.794,2.624 35.794,2.648 35.794,2.672C35.794,3.75 36.68,4.637 37.758,4.637C37.797,4.637 37.835,4.636 37.874,4.634Z" style="fill:gray;fill-rule:nonzero;"/>
    <path d="M39.496,6.408L35.06,6.408L33.159,15.433C32.955,16.263 32.847,17.114 32.835,17.968C32.835,19.825 34.103,21.092 36.79,21.092C37.687,21.111 38.582,21.011 39.452,20.795L39.971,17.626C39.574,17.674 39.174,17.693 38.774,17.683C37.836,17.683 37.443,17.239 37.443,16.472C37.463,15.915 37.539,15.36 37.671,14.818L39.496,6.408Z" style="fill:gray;fill-rule:nonzero;"/>
    <path d="M116.359,4.634L116.422,4.634C116.488,4.639 116.554,4.642 116.62,4.642C117.928,4.642 119.013,3.584 119.046,2.276C119.046,2.273 119.046,2.27 119.046,2.267C119.046,1.151 118.128,0.232 117.012,0.232C116.946,0.232 116.881,0.235 116.815,0.242C116.785,0.241 116.755,0.24 116.725,0.24C115.416,0.24 114.327,1.291 114.28,2.599C114.279,2.624 114.279,2.648 114.279,2.672C114.279,3.75 115.166,4.637 116.244,4.637C116.282,4.637 116.321,4.636 116.359,4.634Z" style="fill:gray;fill-rule:nonzero;"/>
    <path d="M117.981,6.408L113.545,6.408L111.644,15.433C111.44,16.263 111.332,17.114 111.321,17.968C111.321,19.825 112.588,21.092 115.282,21.092C116.178,21.111 117.073,21.011 117.943,20.795L118.463,17.626C118.066,17.674 117.665,17.693 117.265,17.683C116.327,17.683 115.934,17.239 115.934,16.472C115.954,15.915 116.03,15.36 116.163,14.818L117.981,6.408Z" style="fill:gray;fill-rule:nonzero;"/>
    <path d="M9.937,9.666C8.1,8.563 7.022,7.644 7.022,6.541C7.022,5.318 8.201,4.304 10.267,4.304C11.725,4.363 13.147,4.781 14.405,5.521L15.267,1.972L15.267,1.883C13.823,1.104 12.206,0.698 10.565,0.704C5.362,0.704 2.326,3.081 2.326,7.175C2.326,9.533 4.164,11.314 6.293,12.568C8.131,13.614 9.05,14.153 9.05,15.344C9.05,16.922 7.478,17.791 5.64,17.759C3.803,17.727 2.053,16.796 0.906,16.168L0,19.92C1.618,20.85 3.451,21.344 5.317,21.352C10.28,21.352 13.81,19.489 13.81,14.647C13.81,12.473 12.365,11.009 9.937,9.666Z" style="fill:gray;fill-rule:nonzero;"/>
    <path d="M67.179,9.666C65.341,8.563 64.264,7.644 64.264,6.541C64.264,5.318 65.442,4.304 67.509,4.304C68.956,4.368 70.366,4.786 71.615,5.521L72.484,1.972L72.484,1.883C71.039,1.104 69.422,0.698 67.781,0.704C62.578,0.704 59.574,3.1 59.574,7.194C59.574,9.552 61.412,11.333 63.541,12.587C65.379,13.633 66.298,14.172 66.298,15.363C66.298,16.941 64.726,17.81 62.888,17.778C61.05,17.746 59.301,16.796 58.148,16.168L57.242,19.92C58.86,20.85 60.692,21.344 62.559,21.352C67.521,21.352 71.051,19.489 71.051,14.647C71.026,12.473 69.581,11.009 67.179,9.666Z" style="fill:gray;fill-rule:nonzero;"/>
    <path d="M129.643,22.804L126.784,22.804L126.404,20.307C125.775,20.143 125.172,19.893 124.611,19.565L122.576,21.067L120.555,19.045L122.057,17.011C121.728,16.45 121.478,15.847 121.315,15.217L118.818,14.844L118.818,11.979L121.315,11.599C121.479,10.97 121.729,10.366 122.057,9.805L120.555,7.771L122.583,5.774L124.617,7.276C125.178,6.948 125.781,6.699 126.411,6.535L126.791,4.038L129.649,4.038L130.023,6.535C130.653,6.69 131.259,6.931 131.823,7.251L133.845,5.774L135.866,7.796L134.358,9.811C134.686,10.372 134.936,10.976 135.099,11.605L137.596,11.985L137.596,14.837L135.099,15.211C134.936,15.84 134.687,16.444 134.358,17.005L135.86,19.039L133.838,21.061L131.823,19.559C131.262,19.887 130.658,20.137 130.029,20.3L129.655,22.797L129.643,22.804ZM128.21,10.268C126.472,10.268 125.042,11.698 125.042,13.437C125.042,15.175 126.472,16.605 128.21,16.605C129.949,16.605 131.379,15.175 131.379,13.437C131.379,11.698 129.949,10.268 128.21,10.268Z" style="fill:rgb(159,200,72);fill-rule:nonzero;"/>
    <path d="M154.778,5.312C154.778,5.31 154.778,5.308 154.778,5.305C154.778,3.876 155.954,2.701 157.383,2.701C157.385,2.701 157.387,2.701 157.389,2.701C157.851,2.697 158.307,2.818 158.707,3.049C159.104,3.275 159.432,3.603 159.658,4C159.889,4.4 160.01,4.856 160.006,5.318C160.016,6.011 159.741,6.678 159.246,7.162C158.231,8.173 156.566,8.173 155.551,7.162C155.05,6.678 154.77,6.008 154.778,5.312ZM155.12,5.312C155.12,6.556 156.144,7.581 157.389,7.581C157.99,7.591 158.57,7.35 158.986,6.915C159.406,6.491 159.635,5.914 159.62,5.318C159.62,5.316 159.62,5.314 159.62,5.312C159.62,4.078 158.604,3.062 157.37,3.062C157.368,3.062 157.366,3.062 157.364,3.062C156.765,3.046 156.186,3.275 155.76,3.696C155.331,4.121 155.099,4.708 155.12,5.312ZM156.388,6.814L156.388,3.822L157.611,3.822C157.857,3.818 158.095,3.909 158.276,4.076C158.455,4.238 158.556,4.469 158.555,4.71C158.576,5.157 158.25,5.552 157.807,5.616L158.612,6.814L158.118,6.814L157.345,5.629L156.806,5.629L156.806,6.814L156.388,6.814ZM156.787,5.274L157.611,5.274C157.752,5.271 157.887,5.212 157.985,5.109C158.094,5.01 158.156,4.87 158.156,4.722C158.159,4.569 158.097,4.421 157.985,4.317C157.887,4.214 157.752,4.154 157.611,4.152L156.787,4.152L156.787,5.274Z" style="fill:rgb(191,191,191);fill-rule:nonzero;"/>
</svg>
