<svg width="16" height="14" viewBox="0 0 16 14" fill="none" xmlns="http://www.w3.org/2000/svg">
<path d="M8 0.927734L9.87305 4.83789L14.1523 5.4668L11.0625 8.55664L11.1582 9.17188L11.7871 12.8633L8 10.8398L4.21289 12.8633L4.8418 9.17188L4.9375 8.55664L1.84766 5.4668L6.11328 4.83789L6.40039 4.25L8 0.927734ZM8 0.09375C7.79948 0.09375 7.61719 0.14388 7.45312 0.244141C7.28906 0.344401 7.16602 0.48112 7.08398 0.654297L5.49805 3.94922L1.84766 4.48242C1.66536 4.50977 1.5013 4.58724 1.35547 4.71484C1.20964 4.83333 1.10482 4.97917 1.04102 5.15234C0.986328 5.32552 0.977214 5.50326 1.01367 5.68555C1.05924 5.85872 1.15039 6.01367 1.28711 6.15039L3.95312 8.81641L3.33789 12.5215C3.30143 12.7038 3.31966 12.8815 3.39258 13.0547C3.47461 13.2279 3.5931 13.3691 3.74805 13.4785C3.83919 13.5423 3.93034 13.5879 4.02148 13.6152C4.12174 13.6426 4.22656 13.6562 4.33594 13.6562C4.41797 13.6562 4.5 13.6471 4.58203 13.6289C4.66406 13.6107 4.74154 13.5788 4.81445 13.5332L8 11.8242L11.1719 13.5332C11.2539 13.5788 11.3359 13.6107 11.418 13.6289C11.5 13.6471 11.582 13.6562 11.6641 13.6562C11.7643 13.6562 11.8646 13.6426 11.9648 13.6152C12.0651 13.5879 12.1608 13.5423 12.252 13.4785C12.4069 13.3691 12.5208 13.2279 12.5938 13.0547C12.6758 12.8815 12.6986 12.7038 12.6621 12.5215L12.0469 8.81641L14.7129 6.15039C14.8496 6.01367 14.9362 5.85872 14.9727 5.68555C15.0182 5.50326 15.0137 5.32552 14.959 5.15234C14.8952 4.97005 14.7904 4.81966 14.6445 4.70117C14.4987 4.58268 14.3346 4.50977 14.1523 4.48242L10.502 3.94922L8.91602 0.654297C8.83398 0.48112 8.71094 0.344401 8.54688 0.244141C8.38281 0.14388 8.20052 0.09375 8 0.09375Z" fill="#5AC8FA"/>
</svg>
