<svg width="16" height="16" viewBox="0 0 16 16" fill="none" xmlns="http://www.w3.org/2000/svg">
<path fill-rule="evenodd" clip-rule="evenodd" d="M8 0C3.6 0 0 3.6 0 8C0 12.4 3.6 16 8 16C12.4 16 16 12.4 16 8C16 3.6 12.4 0 8 0ZM14.4 8H12C12 6.56 11.2 5.28 10 4.56L11.2 2.48C13.2 3.6 14.4 5.68 14.4 8ZM8 5.6C6.64 5.6 5.6 6.64 5.6 8C5.6 9.36 6.64 10.4 8 10.4C9.36 10.4 10.4 9.36 10.4 8C10.4 6.64 9.36 5.6 8 5.6ZM4.8 2.48L6 4.56C4.8 5.28 4 6.56 4 8H1.6C1.6 5.68 2.8 3.6 4.8 2.48ZM6 11.44L4.8 13.52C6.8 14.72 9.2 14.72 11.2 13.52L10 11.44C8.8 12.16 7.2 12.16 6 11.44Z" fill="currentColor"/>
</svg>
