<svg width="14" height="15" viewBox="0 0 14 15" fill="none" xmlns="http://www.w3.org/2000/svg">
<path d="M14 6.5625V1.94141C14 1.64974 13.8952 1.39909 13.6855 1.18945C13.4759 0.979818 13.2253 0.875 12.9336 0.875H8.2168C8.06185 0.875 7.88411 0.888672 7.68359 0.916016C7.49219 0.934245 7.32357 1.01628 7.17773 1.16211L0.259766 8.08008C0.177734 8.17122 0.113932 8.27148 0.0683594 8.38086C0.0227865 8.48112 0 8.59049 0 8.70898C0 8.82747 0.0227865 8.94141 0.0683594 9.05078C0.113932 9.15104 0.177734 9.24219 0.259766 9.32422L5.55078 14.6152C5.63281 14.6973 5.72396 14.7611 5.82422 14.8066C5.93359 14.8522 6.04753 14.875 6.16602 14.875C6.28451 14.875 6.39388 14.8522 6.49414 14.8066C6.60352 14.7611 6.70378 14.6973 6.79492 14.6152L13.7129 7.69727C13.8587 7.55143 13.9408 7.37826 13.959 7.17773C13.9863 6.97721 14 6.77214 14 6.5625ZM13.084 7.08203L6.16602 14L0.875 8.70898L7.79297 1.79102C7.82031 1.77279 7.88411 1.76367 7.98438 1.76367C8.08464 1.75456 8.16211 1.75 8.2168 1.75H8.4082H12.9336C12.9883 1.75 13.0339 1.76823 13.0703 1.80469C13.1068 1.84115 13.125 1.88672 13.125 1.94141V6.57617C13.125 6.6582 13.1204 6.75391 13.1113 6.86328C13.1113 6.97266 13.1022 7.04557 13.084 7.08203ZM10.5 2.625C10.0169 2.625 9.60221 2.79818 9.25586 3.14453C8.91862 3.48177 8.75 3.89193 8.75 4.375C8.75 4.85807 8.91862 5.27279 9.25586 5.61914C9.60221 5.95638 10.0169 6.125 10.5 6.125C10.9831 6.125 11.3932 5.95638 11.7305 5.61914C12.0768 5.27279 12.25 4.85807 12.25 4.375C12.25 3.89193 12.0768 3.48177 11.7305 3.14453C11.3932 2.79818 10.9831 2.625 10.5 2.625ZM10.5 5.25C10.263 5.25 10.0579 5.16797 9.88477 5.00391C9.71159 4.83073 9.625 4.62109 9.625 4.375C9.625 4.12891 9.71159 3.92383 9.88477 3.75977C10.0579 3.58659 10.263 3.5 10.5 3.5C10.7461 3.5 10.9512 3.58659 11.1152 3.75977C11.2884 3.92383 11.375 4.12891 11.375 4.375C11.375 4.62109 11.2884 4.83073 11.1152 5.00391C10.9512 5.16797 10.7461 5.25 10.5 5.25Z" fill="#5856D6"/>
</svg>
