<svg width="14" height="15" viewBox="0 0 14 15" fill="none" xmlns="http://www.w3.org/2000/svg">
<path d="M7 1.75C7.36458 1.75 7.72917 1.82292 8.09375 1.96875C8.46745 2.10547 8.79557 2.2832 9.07812 2.50195C9.36979 2.71159 9.60677 2.94401 9.78906 3.19922C9.97135 3.45443 10.0625 3.70052 10.0625 3.9375V6.125C10.0625 6.54427 9.96224 7.09115 9.76172 7.76562C9.57031 8.43099 9.23763 8.94596 8.76367 9.31055C8.64518 9.40169 8.55404 9.52018 8.49023 9.66602C8.43555 9.80273 8.41732 9.94857 8.43555 10.1035C8.45378 10.2585 8.50846 10.3997 8.59961 10.5273C8.69076 10.6458 8.80469 10.737 8.94141 10.8008L12.7559 12.6055C12.765 12.6055 12.8242 12.6374 12.9336 12.7012C13.0521 12.7559 13.1113 12.9017 13.1113 13.1387V13.9863L0.875 14V13.1113C0.875 12.929 0.920573 12.806 1.01172 12.7422C1.11198 12.6693 1.18945 12.6237 1.24414 12.6055L5.08594 10.7871C5.22266 10.7233 5.33203 10.6322 5.41406 10.5137C5.50521 10.3861 5.56445 10.2493 5.5918 10.1035C5.61003 9.94857 5.58724 9.80273 5.52344 9.66602C5.46875 9.52018 5.38216 9.40169 5.26367 9.31055C4.80794 8.94596 4.4707 8.43099 4.25195 7.76562C4.04232 7.10026 3.9375 6.55339 3.9375 6.125V3.9375C3.9375 3.70964 4.02409 3.4681 4.19727 3.21289C4.37956 2.95768 4.61654 2.7207 4.9082 2.50195C5.19987 2.2832 5.52799 2.10547 5.89258 1.96875C6.25716 1.82292 6.6263 1.75 7 1.75ZM7 0.875C6.51693 0.875 6.03841 0.966146 5.56445 1.14844C5.09049 1.33073 4.66667 1.56771 4.29297 1.85938C3.92839 2.15104 3.63216 2.47917 3.4043 2.84375C3.17643 3.20833 3.0625 3.57292 3.0625 3.9375V6.125C3.0625 6.36198 3.08984 6.65365 3.14453 7C3.19922 7.33724 3.29036 7.68815 3.41797 8.05273C3.55469 8.4082 3.72786 8.75911 3.9375 9.10547C4.14714 9.45182 4.4069 9.74805 4.7168 9.99414L0.875 11.8125C0.875 11.8125 0.729167 11.8991 0.4375 12.0723C0.145833 12.2363 0 12.4368 0 12.6738V14C0 14.237 0.0820312 14.4375 0.246094 14.6016C0.419271 14.7747 0.628906 14.8613 0.875 14.8613H13.125C13.362 14.8613 13.5625 14.7747 13.7266 14.6016C13.8997 14.4375 13.9863 14.237 13.9863 14V12.6738C13.9863 12.4186 13.8405 12.2135 13.5488 12.0586C13.2663 11.8945 13.125 11.8125 13.125 11.8125L9.31055 9.99414C9.61133 9.75716 9.86654 9.47461 10.0762 9.14648C10.2858 8.80924 10.4544 8.46289 10.582 8.10742C10.7096 7.74284 10.8008 7.38737 10.8555 7.04102C10.9102 6.69466 10.9375 6.38932 10.9375 6.125V3.9375C10.9375 3.57292 10.819 3.20833 10.582 2.84375C10.3542 2.47917 10.0534 2.15104 9.67969 1.85938C9.3151 1.56771 8.89583 1.33073 8.42188 1.14844C7.95703 0.966146 7.48307 0.875 7 0.875Z" fill="#7CA7FF"/>
</svg>
